<?xml version="1.0" encoding="iso-8859-1"?>
<!-- Generator: Adobe Illustrator 18.0.0, SVG Export Plug-In . SVG Version: 6.00 Build 0)  -->
<!DOCTYPE svg PUBLIC "-//W3C//DTD SVG 1.1//EN" "http://www.w3.org/Graphics/SVG/1.1/DTD/svg11.dtd">
<svg version="1.1" id="Capa_1" xmlns="http://www.w3.org/2000/svg" xmlns:xlink="http://www.w3.org/1999/xlink" x="0px" y="0px"
	 viewBox="0 0 461.98 461.98" style="enable-background:new 0 0 461.98 461.98;" xml:space="preserve">
<g>
	<path d="M454.48,188.279h-37.111c-17.23,0-32.534-10.96-38.081-27.274c-9.842-28.946-36.997-48.394-67.57-48.394H43.655
		C19.584,112.611,0,132.195,0,156.267v149.447c0,24.072,19.584,43.656,43.655,43.656h268.063c30.573,0,57.729-19.448,67.57-48.394
		c5.547-16.313,20.851-27.273,38.081-27.273h37.111c4.143,0,7.5-3.358,7.5-7.5v-70.423
		C461.98,191.637,458.623,188.279,454.48,188.279z M311.718,334.369H43.655C27.854,334.369,15,321.514,15,305.713v-2.287
		c3.485,1.498,7.29,2.293,11.235,2.293c0,0,0,0,0.001,0c8.977,0,17.229-4.109,22.641-11.273c2.55-3.376,6.438-5.313,10.67-5.313
		c4.23,0,8.119,1.937,10.669,5.313c5.411,7.164,13.663,11.273,22.641,11.273s17.229-4.109,22.641-11.273
		c2.55-3.376,6.438-5.313,10.67-5.313s8.12,1.937,10.67,5.313c5.411,7.164,13.663,11.273,22.64,11.273
		c8.978,0,17.229-4.109,22.64-11.272c2.551-3.377,6.44-5.313,10.672-5.313c4.23,0,8.119,1.937,10.669,5.313
		c5.411,7.164,13.663,11.273,22.641,11.273s17.229-4.109,22.641-11.273c2.55-3.376,6.438-5.313,10.669-5.313
		c4.231,0,8.121,1.937,10.671,5.313c5.411,7.164,13.663,11.273,22.641,11.273c8.977,0,17.229-4.109,22.64-11.273
		c2.55-3.376,6.438-5.313,10.67-5.313s8.12,1.937,10.67,5.313c5.411,7.164,13.663,11.273,22.641,11.273
		c0.502,0,0.996-0.039,1.492-0.064C350.982,323.163,332.338,334.369,311.718,334.369z M126.97,194.95h-12.721v-23.501h12.721V194.95
		z M106.749,209.95h27.721h30.031h27.722h30.031h27.721h16.117l3.282,17.341H89.608V209.95H106.749z M184.723,194.95h-12.722
		v-23.501h12.722V194.95z M242.475,194.95h-12.721v-23.501h12.721V194.95z M302,242.291l-21.723,41.004
		c-5.358-5.849-12.819-9.162-20.87-9.162c-8.978,0-17.229,4.109-22.64,11.273c-2.55,3.376-6.438,5.313-10.67,5.313
		s-8.12-1.937-10.67-5.313c-5.411-7.164-13.662-11.272-22.64-11.273c0,0,0,0-0.001,0c-8.977,0-17.229,4.109-22.641,11.273
		c-2.55,3.376-6.438,5.313-10.67,5.313c-4.23,0-8.119-1.937-10.669-5.313c-5.411-7.164-13.663-11.273-22.641-11.273
		s-17.229,4.109-22.641,11.273c-2.55,3.376-6.438,5.313-10.67,5.313s-8.12-1.937-10.67-5.313c-4.137-5.477-9.937-9.16-16.449-10.595
		v-32.52H302z M368.589,288.035c-2.665,1.788-6.17,2.684-9.25,2.684c-4.231,0-8.12-1.937-10.67-5.313
		c-5.411-7.164-13.663-11.273-22.641-11.273s-17.229,4.109-22.641,11.273c-2.424,3.21-6.063,5.097-10.05,5.278l27.751-52.382
		c1.231-2.325,1.154-5.125-0.202-7.379s-3.795-3.632-6.426-3.632H284.64l-4.966-26.236c-0.67-3.542-3.765-6.105-7.369-6.105h-14.831
		v-31.001c0-4.142-3.357-7.5-7.5-7.5h-27.721c-4.143,0-7.5,3.358-7.5,7.5v31.001h-15.031v-31.001c0-4.142-3.357-7.5-7.5-7.5h-27.722
		c-4.143,0-7.5,3.358-7.5,7.5v31.001H141.97v-31.001c0-4.142-3.357-7.5-7.5-7.5h-27.721c-4.143,0-7.5,3.358-7.5,7.5v31.001H82.108
		c-4.143,0-7.5,3.358-7.5,7.5v24.841H58.237c-4.143,0-7.5,3.358-7.5,7.5v40.734c-5.442,1.763-10.258,5.15-13.83,9.881
		c-2.551,3.377-6.44,5.313-10.672,5.313c-4.23,0-8.909-2.392-11.235-6.559V156.267c0-15.801,12.854-28.655,28.655-28.655h268.063
		c24.147,0,45.596,15.36,53.369,38.222c7.614,22.397,28.625,37.445,52.282,37.445h2.982v55.423h-2.982
		C396.697,258.702,378.047,270.192,368.589,288.035z M446.98,258.702h-11.629v-55.423h11.629V258.702z"/>
	<circle cx="272.211" cy="256.281" r="8.215"/>
	<path d="M317.469,142.88c-4.143,0-7.5,3.358-7.5,7.5s3.357,7.5,7.5,7.5c11.999,0,21.761,9.762,21.761,21.761
		c0,4.142,3.357,7.5,7.5,7.5s7.5-3.358,7.5-7.5C354.229,159.372,337.738,142.88,317.469,142.88z"/>
</g>
<g>
</g>
<g>
</g>
<g>
</g>
<g>
</g>
<g>
</g>
<g>
</g>
<g>
</g>
<g>
</g>
<g>
</g>
<g>
</g>
<g>
</g>
<g>
</g>
<g>
</g>
<g>
</g>
<g>
</g>
</svg>
